<?xml version="1.0" encoding="UTF-8"?>
<svg xmlns="http://www.w3.org/2000/svg" viewBox="0 0 1024 1024" role="img" aria-label="AceWeather">
  <title>AceWeather</title>
  <circle cx="374" cy="332" r="160" fill="#000"/>
  <g stroke="#000" stroke-width="24" stroke-linecap="round">
    <path d="M374 118v64"/>
    <path d="M374 482v64"/>
    <path d="M160 332h64"/>
    <path d="M524 332h64"/>
    <path d="M222 180l46 46"/>
    <path d="M480 438l46 46"/>
    <path d="M526 180l-46 46"/>
    <path d="M268 438l-46 46"/>
  </g>
  <path fill="#000" d="M312 704c-80 0-144-60-144-135 0-70 54-126 124-132 29-84 108-144 201-144 83 0 155 46 191 116 10-2 21-3 32-3 78 0 141 63 141 141s-63 141-141 141H312z"/>
  <text x="512" y="589" text-anchor="middle" dominant-baseline="middle" font-family="Arial, Helvetica, sans-serif" font-size="240" font-weight="800" letter-spacing="-18" fill="#fff">aw</text>
</svg>
