<?xml version="1.0" encoding="UTF-8"?>
<svg xmlns="http://www.w3.org/2000/svg" viewBox="0 0 1024 1024" role="img" aria-label="AceWeather">
  <title>AceWeather</title>
  <defs>
    <linearGradient id="bg" x1="160" y1="84" x2="870" y2="930" gradientUnits="userSpaceOnUse">
      <stop offset="0" stop-color="#0d1218"/>
      <stop offset="0.58" stop-color="#111b24"/>
      <stop offset="1" stop-color="#182c37"/>
    </linearGradient>
    <radialGradient id="sun" cx="38%" cy="34%" r="64%">
      <stop offset="0" stop-color="#ffe39a"/>
      <stop offset="0.62" stop-color="#f0b657"/>
      <stop offset="1" stop-color="#d8943f"/>
    </radialGradient>
    <linearGradient id="cloud" x1="286" y1="358" x2="738" y2="686" gradientUnits="userSpaceOnUse">
      <stop offset="0" stop-color="#ffffff"/>
      <stop offset="1" stop-color="#dfeaf2"/>
    </linearGradient>
    <filter id="softShadow" x="-20%" y="-20%" width="140%" height="145%">
      <feDropShadow dx="0" dy="24" stdDeviation="28" flood-color="#000000" flood-opacity="0.26"/>
    </filter>
  </defs>
  <rect width="1024" height="1024" fill="url(#bg)"/>
  <circle cx="380" cy="350" r="154" fill="url(#sun)"/>
  <g stroke="#f3c96f" stroke-width="24" stroke-linecap="round" opacity="0.68">
    <path d="M380 146v60"/>
    <path d="M380 494v60"/>
    <path d="M176 350h60"/>
    <path d="M524 350h60"/>
    <path d="M236 206l42 42"/>
    <path d="M482 452l42 42"/>
    <path d="M524 206l-42 42"/>
    <path d="M278 452l-42 42"/>
  </g>
  <path filter="url(#softShadow)" fill="url(#cloud)" d="M324 682c-72 0-130-54-130-122 0-63 49-114 112-120 26-76 98-130 182-130 75 0 140 42 173 104 9-2 18-3 28-3 70 0 127 57 127 127s-57 127-127 127H324z"/>
  <path fill="#121b24" d="M324 682c-72 0-130-54-130-122 0-63 49-114 112-120 26-76 98-130 182-130 75 0 140 42 173 104 9-2 18-3 28-3 70 0 127 57 127 127s-57 127-127 127H324z" opacity="0.08"/>
  <text x="512" y="578" text-anchor="middle" dominant-baseline="middle" font-family="Arial, Helvetica, sans-serif" font-size="218" font-weight="800" letter-spacing="-16" fill="#101820">aw</text>
</svg>
