<svg xmlns="http://www.w3.org/2000/svg" viewBox="0 0 512 512">
  <defs>
    <linearGradient id="bg" x1="80" y1="42" x2="435" y2="465" gradientUnits="userSpaceOnUse">
      <stop offset="0" stop-color="#0d1218"/>
      <stop offset="0.58" stop-color="#111b24"/>
      <stop offset="1" stop-color="#182c37"/>
    </linearGradient>
    <radialGradient id="sun" cx="38%" cy="34%" r="64%">
      <stop offset="0" stop-color="#ffe39a"/>
      <stop offset="0.62" stop-color="#f0b657"/>
      <stop offset="1" stop-color="#d8943f"/>
    </radialGradient>
    <linearGradient id="cloud" x1="143" y1="179" x2="369" y2="343" gradientUnits="userSpaceOnUse">
      <stop offset="0" stop-color="#ffffff"/>
      <stop offset="1" stop-color="#dfeaf2"/>
    </linearGradient>
  </defs>
  <rect width="512" height="512" fill="url(#bg)"/>
  <circle cx="190" cy="175" r="77" fill="url(#sun)"/>
  <g stroke="#f3c96f" stroke-width="12" stroke-linecap="round" opacity="0.68">
    <path d="M190 73v30"/>
    <path d="M190 247v30"/>
    <path d="M88 175h30"/>
    <path d="M262 175h30"/>
    <path d="M118 103l21 21"/>
    <path d="M241 226l21 21"/>
    <path d="M262 103l-21 21"/>
    <path d="M139 226l-21 21"/>
  </g>
  <path fill="url(#cloud)" d="M162 341c-36 0-65-27-65-61 0-32 25-57 56-60 13-38 49-65 91-65 37 0 70 21 86 52 5-1 9-1 14-1 35 0 63 28 63 63s-28 63-63 63H162z"/>
  <text x="256" y="289" text-anchor="middle" dominant-baseline="middle" font-family="Arial, Helvetica, sans-serif" font-size="109" font-weight="800" letter-spacing="-8" fill="#101820">aw</text>
</svg>
