<svg xmlns="http://www.w3.org/2000/svg" viewBox="0 0 512 512">
  <defs>
    <linearGradient id="bg" x1="0" y1="0" x2="1" y2="1">
      <stop offset="0%" stop-color="#0a1c2d"/>
      <stop offset="55%" stop-color="#14324b"/>
      <stop offset="100%" stop-color="#235879"/>
    </linearGradient>
    <linearGradient id="rain" x1="0" y1="0" x2="0" y2="1">
      <stop offset="0%" stop-color="#8ce7ff"/>
      <stop offset="100%" stop-color="#57b7ff"/>
    </linearGradient>
  </defs>
  <rect width="512" height="512" rx="112" fill="url(#bg)"/>
  <circle cx="148" cy="138" r="58" fill="#ffcb6b" opacity="0.95"/>
  <path d="M150 309c0-57 46-103 103-103 35 0 66 16 86 41 8-2 14-3 21-3 43 0 78 35 78 78s-35 78-78 78H168c-55 0-98-40-98-90 0-47 35-84 80-89Z" fill="#eef6ff"/>
  <path d="M186 405c-14 27-27 48-27 63a27 27 0 1 0 54 0c0-15-13-36-27-63Zm80-10c-14 27-27 48-27 63a27 27 0 1 0 54 0c0-15-13-36-27-63Zm80 10c-14 27-27 48-27 63a27 27 0 1 0 54 0c0-15-13-36-27-63Z" fill="url(#rain)"/>
  <path d="M260 144 178 355h45l-20 78 132-186h-54l49-103Z" fill="#071622" opacity="0.92"/>
</svg>
