<svg xmlns="http://www.w3.org/2000/svg" viewBox="0 0 192 192">
  <defs>
    <linearGradient id="bg" x1="0" y1="0" x2="1" y2="1">
      <stop offset="0%" stop-color="#0a1c2d"/>
      <stop offset="55%" stop-color="#14324b"/>
      <stop offset="100%" stop-color="#235879"/>
    </linearGradient>
    <linearGradient id="rain" x1="0" y1="0" x2="0" y2="1">
      <stop offset="0%" stop-color="#8ce7ff"/>
      <stop offset="100%" stop-color="#57b7ff"/>
    </linearGradient>
  </defs>
  <rect width="192" height="192" rx="42" fill="url(#bg)"/>
  <circle cx="56" cy="52" r="22" fill="#ffcb6b" opacity="0.95"/>
  <path d="M56 117c0-21 17-38 38-38 12 0 24 5 31 14 3-1 5-1 8-1 16 0 29 13 29 29s-13 29-29 29H63c-20 0-36-15-36-33 0-17 13-31 29-33Z" fill="#eef6ff"/>
  <path d="M70 151c-5 10-10 17-10 23a10 10 0 1 0 20 0c0-6-5-13-10-23Zm30-4c-5 10-10 17-10 23a10 10 0 1 0 20 0c0-6-5-13-10-23Zm30 4c-5 10-10 17-10 23a10 10 0 1 0 20 0c0-6-5-13-10-23Z" fill="url(#rain)"/>
  <path d="M97 54 66 136h17l-7 31 50-73H106l19-40Z" fill="#071622" opacity="0.92"/>
</svg>
