<svg xmlns="http://www.w3.org/2000/svg" viewBox="0 0 512 512">
  <defs>
    <linearGradient id="bg" x1="0" y1="0" x2="1" y2="1">
      <stop offset="0%" stop-color="#081622"/>
      <stop offset="45%" stop-color="#163650"/>
      <stop offset="100%" stop-color="#2a6d90"/>
    </linearGradient>
    <linearGradient id="rain" x1="0" y1="0" x2="0" y2="1">
      <stop offset="0%" stop-color="#9beaff"/>
      <stop offset="100%" stop-color="#5cbcff"/>
    </linearGradient>
  </defs>
  <rect width="512" height="512" fill="url(#bg)"/>
  <circle cx="152" cy="136" r="58" fill="#ffcb6b" opacity="0.98"/>
  <path d="M150 304c0-58 47-105 105-105 35 0 68 17 88 43 7-2 14-3 21-3 44 0 79 35 79 79s-35 79-79 79H167c-56 0-101-41-101-91 0-47 35-85 84-90Z" fill="#eef6ff"/>
  <path d="M189 401c-14 28-28 48-28 64a28 28 0 1 0 56 0c0-16-14-36-28-64Zm80-8c-14 28-28 48-28 64a28 28 0 1 0 56 0c0-16-14-36-28-64Zm80 8c-14 28-28 48-28 64a28 28 0 1 0 56 0c0-16-14-36-28-64Z" fill="url(#rain)"/>
  <path d="M261 145 179 356h45l-20 78 132-186h-54l49-103Z" fill="#071622" opacity="0.92"/>
</svg>
